<?xml version="1.0" encoding="iso-8859-1"?>
<!-- Generator: Adobe Illustrator 18.0.0, SVG Export Plug-In . SVG Version: 6.00 Build 0)  -->
<!DOCTYPE svg PUBLIC "-//W3C//DTD SVG 1.1//EN" "http://www.w3.org/Graphics/SVG/1.1/DTD/svg11.dtd">
<svg version="1.1" id="Capa_1" xmlns="http://www.w3.org/2000/svg" xmlns:xlink="http://www.w3.org/1999/xlink" x="0px" y="0px"
	 viewBox="0 0 47.763 47.763" style="enable-background:new 0 0 47.763 47.763;" xml:space="preserve">
<g>
	<path style="fill:#6c757d;" d="M20.92,22.551c-0.547-5.859-5.2-10.494-11.218-10.126C-4.772,13.31-1.975,38.292,10.995,35.072
		c0.105,0.138,0.279,0.224,0.507,0.169C17.19,33.882,21.474,28.482,20.92,22.551z M20.085,23.874
		c-4.367-0.157-8.835,0.404-13.149,1.019c-0.134,0.019-0.104,0.253,0.032,0.238c4.363-0.474,8.734-0.573,13.1-0.938
		c-0.062,0.895-0.236,1.739-0.506,2.531c-0.003,0-0.004-0.003-0.008-0.003c-3.354,0.086-6.715,0.595-10.007,1.218
		c-0.123,0.023-0.069,0.206,0.051,0.187c3.27-0.515,6.535-0.769,9.827-1.052c-0.255,0.664-0.558,1.302-0.939,1.89
		c-4.198-0.296-8.549,0.25-12.752,0.43c-0.117,0.005-0.118,0.185,0,0.183c4.153-0.089,8.472,0.159,12.597-0.372
		c-0.621,0.902-1.377,1.711-2.237,2.417c-0.014-0.006-0.022-0.018-0.039-0.021c-2.996-0.375-6.082-0.342-9.099-0.424
		c-0.148-0.004-0.145,0.218,0,0.229c2.909,0.21,5.874,0.527,8.795,0.479c-0.368,0.283-0.755,0.546-1.153,0.794
		c-0.029-0.034-0.067-0.058-0.122-0.056c-1.521,0.059-3.015,0.286-4.546,0.275c-0.155-0.001-0.153,0.231,0,0.239
		c1.31,0.072,2.712,0.117,4.03-0.088c-0.866,0.486-1.779,0.903-2.726,1.227c-0.046,0.016-0.078,0.042-0.114,0.065
		C5.135,33.743,0.697,29.936,0.895,23.525c0.187-6.031,5.132-11.214,11.413-9.854c1.049,0.227,2.02,0.651,2.909,1.202
		c-1.678-0.277-3.43-0.31-5.108-0.158c-0.115,0.01-0.12,0.185,0,0.183c1.948-0.031,3.797,0.153,5.725,0.42
		c0.011,0.002,0.017-0.006,0.028-0.007c0.471,0.347,0.921,0.72,1.326,1.143c-2.87-0.48-5.94-0.351-8.827-0.158
		c-0.132,0.009-0.135,0.211,0,0.207c2.998-0.081,5.942,0.216,8.929,0.286c0.06,0.001,0.098-0.035,0.124-0.08
		c0.704,0.786,1.298,1.672,1.74,2.634c-3.793-0.219-7.707,0.219-11.493,0.451c-0.125,0.008-0.128,0.201,0,0.197
		c3.852-0.135,7.797,0.044,11.629-0.343c0.268,0.637,0.477,1.3,0.612,1.981c-3.169-0.152-6.543,0.529-9.63,1.183
		c-0.092,0.02-0.052,0.154,0.038,0.139c3.204-0.525,6.429-0.601,9.632-1.032c0.009-0.001,0.011-0.009,0.018-0.011
		c0.097,0.574,0.145,1.159,0.137,1.747C20.096,23.73,20.088,23.801,20.085,23.874z"/>
	<path style="fill:#6c757d;" d="M36.749,12.454c-15.407-0.145-11.857,25.013,0.309,22.442c5.663,1.804,10.012-4.552,10.619-9.51
		C48.48,18.829,43.528,12.517,36.749,12.454z M45.27,30.043c-0.002,0-0.003-0.002-0.005-0.002c-3.172-0.226-6.442-0.057-9.62,0.042
		c-0.14,0.004-0.14,0.213,0,0.218c3.113,0.097,6.315,0.256,9.426,0.051c-1.367,2.147-3.629,3.643-6.838,3.71
		c-0.056-0.058-0.133-0.101-0.234-0.108c-6.03-0.442-10.504-4.212-10.634-10.565c-0.109-5.353,3.937-9.806,9.385-9.77
		c2.89,0.019,5.158,1.14,6.791,2.843c-0.011-0.002-0.015-0.012-0.027-0.012c-2.619-0.094-5.252,0.032-7.874-0.03
		c-0.129-0.003-0.128,0.194,0,0.2c2.605,0.122,5.269,0.305,7.874,0.139c0.106-0.007,0.151-0.091,0.144-0.171
		c0.516,0.557,0.97,1.171,1.353,1.83c-3.959-0.205-7.882,0.007-11.814,0.485c-0.128,0.015-0.131,0.218,0,0.204
		c3.959-0.427,7.92-0.454,11.893-0.24c0.065,0.003,0.11-0.022,0.146-0.055c0.352,0.667,0.64,1.371,0.86,2.098
		c-0.032-0.032-0.073-0.058-0.13-0.06c-2.797-0.093-5.609,0.083-8.393,0.348c-0.153,0.015-0.157,0.254,0,0.243
		c2.801-0.204,5.586-0.209,8.393-0.193c0.117,0.001,0.173-0.082,0.183-0.171c0.162,0.563,0.286,1.139,0.368,1.719
		c-3.741,0.225-7.484,0.577-11.214,0.93c-0.126,0.012-0.13,0.207,0,0.2c3.753-0.202,7.518-0.405,11.263-0.736
		C46.833,25.605,46.413,28.071,45.27,30.043z"/>
	<path style="fill:#6c757d;" d="M17.983,18.041c-2.548-0.215-5.169,0.007-7.702,0.305c-0.137,0.016-0.141,0.23,0,0.218
		c2.577-0.226,5.122-0.17,7.702-0.196C18.196,18.366,18.19,18.059,17.983,18.041z"/>
	<path style="fill:#6c757d;" d="M42.487,32.531c-3.095-0.536-6.499-0.326-9.638-0.411c-0.151-0.004-0.147,0.221,0,0.232
		c3.107,0.231,6.513,0.713,9.613,0.366C42.558,32.707,42.602,32.551,42.487,32.531z"/>
	<path style="fill:#6c757d;" d="M45.964,27.564c-4.08-0.165-8.179,0.071-12.242,0.448c-0.127,0.012-0.13,0.209,0,0.2
		c4.084-0.277,8.151-0.285,12.242-0.283C46.2,27.93,46.198,27.573,45.964,27.564z"/>
	<path style="fill:#6c757d;" d="M46.51,25.151c-1.214-0.2-2.508,0.059-3.731,0.167c-1.445,0.129-2.891,0.258-4.335,0.399
		c-0.144,0.014-0.149,0.237,0,0.229c1.446-0.083,2.891-0.179,4.335-0.276c1.237-0.083,2.551-0.021,3.731-0.411
		C46.558,25.244,46.569,25.161,46.51,25.151z"/>
	<path style="fill:#6c757d;" d="M42.157,15.542c-1.873-0.304-3.751-0.37-5.642-0.216c-0.143,0.012-0.146,0.233,0,0.225
		c1.869-0.107,3.702,0.011,5.545,0.343C42.291,15.936,42.387,15.58,42.157,15.542z"/>
</g>
<g>
</g>
<g>
</g>
<g>
</g>
<g>
</g>
<g>
</g>
<g>
</g>
<g>
</g>
<g>
</g>
<g>
</g>
<g>
</g>
<g>
</g>
<g>
</g>
<g>
</g>
<g>
</g>
<g>
</g>
</svg>
