<svg id="Layer_1" data-name="Layer 1" xmlns="http://www.w3.org/2000/svg" width="1000" height="1000" viewBox="0 0 1000 1000"><defs><style>.cls-1{fill:none;stroke-width:13px;}.cls-1,.cls-2,.cls-3{stroke:#fff;stroke-miterlimit:10;}.cls-2{fill:#fff;}.cls-3{fill:#221f1f;stroke-width:12px;}</style></defs><circle class="cls-1" cx="500" cy="506.54" r="450.15"/><polygon class="cls-2" points="728.18 506.78 728.18 725.36 725.37 725.36 635.47 506.78 604 506.78 514.1 725.36 511.29 725.36 511.29 506.78 511.32 506.78 511.32 219.09 469.74 219.09 371.97 457.9 368.6 457.9 270.83 219.09 229.25 219.09 229.25 506.78 261.84 506.78 261.84 288.2 264.65 288.2 354.56 506.78 386.02 506.78 475.92 288.2 478.73 288.2 478.73 506.78 478.7 506.78 478.7 794.47 520.28 794.47 618.05 555.67 621.42 555.67 719.19 794.47 760.77 794.47 760.77 506.78 728.18 506.78"/><line class="cls-3" x1="707.83" y1="187.47" x2="261.42" y2="825.01"/><line class="cls-3" x1="741.15" y1="190.4" x2="295.28" y2="827.16"/></svg>